<?xml version="1.0"?>
<svg xmlns="http://www.w3.org/2000/svg" height="512px" viewBox="-24 0 480 480.04546" width="512px" class=""><g><path d="m84.460938 153.390625c-3.675782-2.453125-8.640626-1.460937-11.09375 2.214844-2.453126 3.675781-1.460938 8.644531 2.214843 11.097656l24 16c3.175781 2.113281 7.398438 1.695313 10.097657-1l48-48c3.03125-3.140625 2.988281-8.128906-.097657-11.214844-3.085937-3.085937-8.078125-3.128906-11.214843-.097656l-43.359376 43.359375zm0 0" data-original="#000000" class="active-path" data-old_color="#000000" fill="#0783F7"/><path d="m232.023438 152.046875h112c4.417968 0 8-3.582031 8-8s-3.582032-8-8-8h-112c-4.417969 0-8 3.582031-8 8s3.582031 8 8 8zm0 0" data-original="#000000" class="active-path" data-old_color="#000000" fill="#0783F7"/><path d="m232.023438 184.046875h64c4.417968 0 8-3.582031 8-8s-3.582032-8-8-8h-64c-4.417969 0-8 3.582031-8 8s3.582031 8 8 8zm0 0" data-original="#000000" class="active-path" data-old_color="#000000" fill="#0783F7"/><path d="m344.023438 168.046875h-16c-4.417969 0-8 3.582031-8 8s3.582031 8 8 8h16c4.417968 0 8-3.582031 8-8s-3.582032-8-8-8zm0 0" data-original="#000000" class="active-path" data-old_color="#000000" fill="#0783F7"/><path d="m232.023438 248.046875h112c4.417968 0 8-3.582031 8-8s-3.582032-8-8-8h-112c-4.417969 0-8 3.582031-8 8s3.582031 8 8 8zm0 0" data-original="#000000" class="active-path" data-old_color="#000000" fill="#0783F7"/><path d="m232.023438 280.046875h64c4.417968 0 8-3.582031 8-8s-3.582032-8-8-8h-64c-4.417969 0-8 3.582031-8 8s3.582031 8 8 8zm0 0" data-original="#000000" class="active-path" data-old_color="#000000" fill="#0783F7"/><path d="m344.023438 264.046875h-16c-4.417969 0-8 3.582031-8 8s3.582031 8 8 8h16c4.417968 0 8-3.582031 8-8s-3.582032-8-8-8zm0 0" data-original="#000000" class="active-path" data-old_color="#000000" fill="#0783F7"/><path d="m232.023438 360.046875h112c4.417968 0 8-3.582031 8-8s-3.582032-8-8-8h-112c-4.417969 0-8 3.582031-8 8s3.582031 8 8 8zm0 0" data-original="#000000" class="active-path" data-old_color="#000000" fill="#0783F7"/><path d="m232.023438 392.046875h64c4.417968 0 8-3.582031 8-8s-3.582032-8-8-8h-64c-4.417969 0-8 3.582031-8 8s3.582031 8 8 8zm0 0" data-original="#000000" class="active-path" data-old_color="#000000" fill="#0783F7"/><path d="m344.023438 376.046875h-16c-4.417969 0-8 3.582031-8 8s3.582031 8 8 8h16c4.417968 0 8-3.582031 8-8s-3.582032-8-8-8zm0 0" data-original="#000000" class="active-path" data-old_color="#000000" fill="#0783F7"/><path d="m144.023438 216.046875h-64c-4.417969 0-8 3.582031-8 8v64c0 4.417969 3.582031 8 8 8h64c4.417968 0 8-3.582031 8-8v-64c0-4.417969-3.582032-8-8-8zm-8 64h-48v-48h48zm0 0" data-original="#000000" class="active-path" data-old_color="#000000" fill="#0783F7"/><path d="m144.023438 328.046875h-64c-4.417969 0-8 3.582031-8 8v64c0 4.417969 3.582031 8 8 8h64c4.417968 0 8-3.582031 8-8v-64c0-4.417969-3.582032-8-8-8zm-8 64h-48v-48h48zm0 0" data-original="#000000" class="active-path" data-old_color="#000000" fill="#0783F7"/><path d="m392.023438 24.046875h-123.746094c-12.609375-15.855469-32.011719-24.765625-52.253906-24-18.453126-.316406-35.8125 8.710937-46.152344 24h-129.847656c-22.082032.023437-39.9726568 17.917969-40.0000005 40v376c.0273437 22.078125 17.9179685 39.972656 40.0000005 40h352c22.078124-.027344 39.972656-17.921875 40-40v-376c-.027344-22.082031-17.921876-39.976563-40-40zm-280 80h208c4.417968 0 8-3.582031 8-8 0-9.066406-.128907-17.007813-.542969-24h56.542969v360h-336v-360h57.375c-.980469 7.960937-1.4375 15.976563-1.375 24 0 4.417969 3.582031 8 8 8zm104-88c22.214843-1.273437 42.332031 13.054687 48.390624 34.460937 1.359376 4.203126 5.863282 6.507813 10.066407 5.152344 1.867187-.683594 3.625-1.640625 5.214843-2.839844 4.703126-3.480468 10.492188-5.171874 16.328126-4.773437 11.261718 0 15.496093 0 16 40h-191.871094c1.308594-40 12.796875-40 23.871094-40 6.933593.90625 13.585937 3.304687 19.503906 7.03125 2.179687 1.355469 4.878906 1.582031 7.257812.605469 2.375-.972656 4.140625-3.027344 4.742188-5.527344 3.285156-19.773438 20.449218-34.234375 40.496094-34.109375zm200 424c0 13.253906-10.746094 24-24 24h-352c-13.253907 0-24-10.746094-24-24v-376c0-13.257813 10.746093-24 24-24h78.832031c-4.640625 4.378906-8.054688 9.894531-9.914063 16h-68.917968c-4.417969 0-8 3.582031-8 8v376c0 4.417969 3.582031 8 8 8h352c4.417968 0 8-3.582031 8-8v-376c0-4.417969-3.582032-8-8-8h-66.402344c-.882813-5.847656-3.273438-11.359375-6.933594-16h73.335938c13.253906 0 24 10.742187 24 24zm0 0" data-original="#000000" class="active-path" data-old_color="#000000" fill="#0783F7"/></g> </svg>
