<?xml version="1.0"?>
<svg xmlns="http://www.w3.org/2000/svg" height="512px" viewBox="-24 0 480 480" width="512px"><g><path d="m68 200c.402344 48.070312 21.574219 93.617188 58.0625 124.910156l25.9375 84.296875v30.792969c.027344 22.082031 17.917969 39.972656 40 40h48c22.082031-.027344 39.972656-17.917969 40-40v-30.792969l25.929688-84.285156c36.492187-31.296875 57.667968-76.847656 58.070312-124.921875 0-78.808594-62.238281-136-148-136s-148 57.191406-148 136zm196 232h-96v-16h96zm-24 32h-48c-10.167969-.011719-19.230469-6.417969-22.632812-16h93.265624c-3.402343 9.582031-12.464843 15.988281-22.632812 16zm26.097656-64h-100.195312l-18.292969-59.472656c41.902344 25.972656 94.898437 25.972656 136.796875 0zm-66.554687-154.273438 11.730469 8.441407c2.789062 2.007812 6.550781 2.007812 9.34375 0l11.863281-8.566407c-.285157.769532-.449219 1.578126-.480469 2.398438v94.703125c-10.597656 1.730469-21.402344 1.730469-32 0v-94.703125c-.039062-.777344-.191406-1.542969-.457031-2.273438zm16.457031-165.726562c76.480469 0 132 50.472656 132 120 0 64.753906-44 122.625-100 139.144531v-89.257812l5.960938 4.289062c2.789062 2.007813 6.550781 2.007813 9.34375 0l21.367187-15.359375c3.585937-2.582031 4.40625-7.582031 1.824219-11.167968-2.582032-3.589844-7.582032-4.40625-11.167969-1.824219l-16.695313 12-16.6875-12c-2.792968-2.007813-6.554687-2.007813-9.34375 0l-16.65625 12-16.65625-12c-2.792968-2.011719-6.558593-2.011719-9.351562 0l-16.640625 12-16.617187-12c-2.316407-1.699219-5.367188-2.023438-7.988282-.851563s-4.417968 3.65625-4.699218 6.515625c-.285157 2.859375.984374 5.648438 3.328124 7.3125l21.296876 15.359375c2.792968 2.015625 6.5625 2.015625 9.359374 0l6.023438-4.328125v89.3125c-56-16.519531-100-74.390625-100-139.144531 0-69.527344 55.511719-120 132-120zm0 0" data-original="#000000" class="active-path" data-old_color="#000000" fill="#0783F7"/><path d="m104.183594 233.734375c.816406 3.664063 4.066406 6.269531 7.816406 6.265625.585938 0 1.171875-.066406 1.742188-.191406 4.316406-.957032 7.039062-5.230469 6.082031-9.542969-7.722657-29.507813-1.402344-60.929687 17.136719-85.152344 17.394531-21.289062 43.550781-33.480469 71.039062-33.113281 4.417969 0 8-3.582031 8-8s-3.582031-8-8-8c-32.347656-.382812-63.101562 14.011719-83.527344 39.097656-21.617187 27.988282-29.105468 64.390625-20.289062 98.636719zm0 0" data-original="#000000" class="active-path" data-old_color="#000000" fill="#0783F7"/><path d="m232 112h8c4.417969 0 8-3.582031 8-8s-3.582031-8-8-8h-8c-4.417969 0-8 3.582031-8 8s3.582031 8 8 8zm0 0" data-original="#000000" class="active-path" data-old_color="#000000" fill="#0783F7"/><path d="m224 40v-32c0-4.417969-3.582031-8-8-8s-8 3.582031-8 8v32c0 4.417969 3.582031 8 8 8s8-3.582031 8-8zm0 0" data-original="#000000" class="active-path" data-old_color="#000000" fill="#0783F7"/><path d="m338.34375 362.34375c-3.121094 3.125-3.121094 8.1875 0 11.3125l24 24c3.140625 3.03125 8.128906 2.988281 11.214844-.097656 3.085937-3.085938 3.128906-8.074219.097656-11.214844l-24-24c-3.125-3.121094-8.1875-3.121094-11.3125 0zm0 0" data-original="#000000" class="active-path" data-old_color="#000000" fill="#0783F7"/><path d="m37.65625 50.34375c-3.140625-3.03125-8.128906-2.988281-11.214844.097656-3.085937 3.085938-3.128906 8.074219-.097656 11.214844l24 24c3.140625 3.03125 8.128906 2.988281 11.214844-.097656 3.085937-3.085938 3.128906-8.074219.097656-11.214844zm0 0" data-original="#000000" class="active-path" data-old_color="#000000" fill="#0783F7"/><path d="m58.34375 397.65625c3.125 3.121094 8.1875 3.121094 11.3125 0l24-24c3.03125-3.140625 2.988281-8.128906-.097656-11.214844-3.085938-3.085937-8.074219-3.128906-11.214844-.097656l-24 24c-3.121094 3.125-3.121094 8.1875 0 11.3125zm0 0" data-original="#000000" class="active-path" data-old_color="#000000" fill="#0783F7"/><path d="m0 240c0 4.417969 3.582031 8 8 8h40c4.417969 0 8-3.582031 8-8s-3.582031-8-8-8h-40c-4.417969 0-8 3.582031-8 8zm0 0" data-original="#000000" class="active-path" data-old_color="#000000" fill="#0783F7"/><path d="m394.34375 50.34375-24 24c-2.078125 2.007812-2.914062 4.984375-2.179688 7.78125.730469 2.796875 2.914063 4.980469 5.710938 5.710938 2.796875.734374 5.773438-.101563 7.78125-2.179688l24-24c3.03125-3.140625 2.988281-8.128906-.097656-11.214844-3.085938-3.085937-8.074219-3.128906-11.214844-.097656zm0 0" data-original="#000000" class="active-path" data-old_color="#000000" fill="#0783F7"/><path d="m376 240c0 4.417969 3.582031 8 8 8h40c4.417969 0 8-3.582031 8-8s-3.582031-8-8-8h-40c-4.417969 0-8 3.582031-8 8zm0 0" data-original="#000000" class="active-path" data-old_color="#000000" fill="#0783F7"/></g> </svg>
