<?xml version="1.0"?>
<svg xmlns="http://www.w3.org/2000/svg" height="512px" viewBox="-96 0 480 480" width="512px" class=""><g><path d="m8 480h272c4.417969 0 8-3.582031 8-8v-416c0-4.417969-3.582031-8-8-8h-48v-24c0-13.253906-10.746094-24-24-24h-128c-13.253906 0-24 10.746094-24 24v24h-48c-4.417969 0-8 3.582031-8 8v416c0 4.417969 3.582031 8 8 8zm64-456c0-4.417969 3.582031-8 8-8h128c4.417969 0 8 3.582031 8 8v24h-144zm-56 40h256v400h-256zm0 0" data-original="#000000" class="active-path" data-old_color="#000000" fill="#0783F7"/><path d="m200 256h-28.902344l36.496094-109.472656c.8125-2.4375.402344-5.121094-1.101562-7.207032-1.503907-2.085937-3.921876-3.320312-6.492188-3.320312h-80c-3.667969 0-6.867188 2.496094-7.761719 6.054688l-32 128c-.597656 2.390624-.0625 4.925781 1.453125 6.867187 1.519532 1.941406 3.84375 3.078125 6.308594 3.078125h24v120c0 3.609375 2.414062 6.773438 5.898438 7.71875 3.480468.949219 7.167968-.550781 8.996093-3.664062l80-136c1.457031-2.472657 1.476563-5.535157.050781-8.027344-1.425781-2.492188-4.074218-4.027344-6.945312-4.027344zm-72 114.625v-98.625c0-4.417969-3.582031-8-8-8h-21.753906l28-112h62.65625l-36.496094 109.472656c-.8125 2.4375-.402344 5.121094 1.101562 7.207032 1.503907 2.085937 3.921876 3.320312 6.492188 3.320312h26.015625zm0 0" data-original="#000000" class="active-path" data-old_color="#000000" fill="#0783F7"/><path d="m48 392h-16v56h56v-16h-40zm0 0" data-original="#000000" class="active-path" data-old_color="#000000" fill="#0783F7"/><path d="m104 432h40v16h-40zm0 0" data-original="#000000" class="active-path" data-old_color="#000000" fill="#0783F7"/></g> </svg>
